<svg width="28" height="29" viewBox="0 0 28 29" fill="none" xmlns="http://www.w3.org/2000/svg">
<path d="M1.76022 1.25109L17.9474 0.0658846C19.9358 -0.103182 20.4466 0.0107856 21.6969 0.911798L26.8641 4.5202C27.7162 5.14079 28 5.30985 28 5.98554V25.7756C28 27.0159 27.5457 27.7496 25.9551 27.8616L7.15761 28.9902C5.96404 29.0462 5.39563 28.8771 4.77047 28.0875L0.965386 23.1825C0.282887 22.2797 0 21.6041 0 20.8141V3.22305C0 2.20894 0.454317 1.36332 1.76022 1.25109Z" fill="white"/>
<path fill-rule="evenodd" clip-rule="evenodd" d="M17.9472 0.0661751L1.7602 1.25139C0.454312 1.36333 0 2.20925 0 3.22308V20.8143C0 21.6039 0.282884 22.2796 0.965376 23.1827L4.77042 28.0874C5.39557 28.877 5.96398 29.0464 7.15753 28.9901L25.9552 27.8621C27.5445 27.7498 28 27.0161 28 25.7761V5.98587C28 5.34498 27.7446 5.16025 26.9928 4.61332L21.6967 0.911805C20.4467 0.0107857 19.9356 -0.103183 17.9472 0.0658851V0.0661751ZM7.58259 5.66195C6.04764 5.76432 5.69952 5.78752 4.82776 5.08486L2.61149 3.33734C2.38623 3.11114 2.49945 2.82897 3.06697 2.77271L18.628 1.6455C19.9347 1.5324 20.6152 1.98392 21.1262 2.37832L23.7951 4.29519C23.9091 4.35232 24.1929 4.68959 23.8515 4.68959L7.78152 5.64861L7.58259 5.66195ZM5.79313 25.607V8.80667C5.79313 8.07298 6.02044 7.73455 6.70088 7.67771L25.1583 6.60647C25.7843 6.5505 26.0672 6.94489 26.0672 7.67742V24.3659C26.0672 25.0995 25.9531 25.7201 24.9313 25.7761L7.2687 26.7911C6.24686 26.8471 5.79343 26.5098 5.79343 25.607H5.79313ZM23.2284 9.7074C23.3416 10.2149 23.2284 10.7224 22.7165 10.7804L21.8652 10.9477V23.3517C21.1259 23.7461 20.4455 23.9715 19.8768 23.9715C18.9679 23.9715 18.7409 23.6893 18.0601 22.8442L12.4931 14.1617V22.5621L14.2542 22.9573C14.2542 22.9573 14.2542 23.9723 12.8334 23.9723L8.91627 24.1977C8.80218 23.9715 8.91627 23.408 9.31325 23.2958L10.3363 23.0145V11.9076L8.91656 11.7936C8.80247 11.2861 9.08624 10.5533 9.88194 10.4965L14.0848 10.2161L19.8771 19.0108V11.2302L18.4007 11.062C18.2866 10.4405 18.7409 9.98899 19.3084 9.93389L23.2284 9.7074Z" fill="#2563EB"/>
<rect x="6.89231" y="7.86441" width="17.6615" height="16.7119" fill="white"/>
<path d="M3.44806 3.29805L20.2828 1.65295C22.4691 1.43931 24.3804 3.04142 24.552 5.23137V5.23137L3.75865 7.26329L3.44806 3.29805Z" fill="#2563EB"/>
<rect x="2.15385" y="1.47458" width="18.9538" height="5.40678" fill="#2563EB"/>
<path d="M14.5263 23.7875C13.6783 23.8468 12.9203 23.7578 12.2521 23.5205C11.5994 23.2654 11.0675 22.8264 10.6563 22.2036C10.2452 21.5807 10.003 20.7456 9.9298 19.6982L9.34734 11.3685L13.587 11.072L14.0997 18.4041C14.1555 19.2022 14.3524 19.7481 14.6904 20.0419C15.0284 20.3357 15.4883 20.4623 16.0702 20.4216C16.3695 20.4007 16.6486 20.331 16.9077 20.2127C17.1656 20.0777 17.3867 19.8951 17.5711 19.6651C17.7543 19.4183 17.8836 19.1169 17.959 18.7608C18.0498 18.3869 18.0783 17.9588 18.0446 17.4767L17.5772 10.793L21.8169 10.4965L22.6888 22.9661L18.8981 23.2312L18.6095 20.8956C18.2721 21.8047 17.761 22.5004 17.0763 22.9826C16.3905 23.4483 15.5404 23.7166 14.5263 23.7875Z" fill="#2563EB"/>
</svg>
